<svg width="177" height="185" viewBox="0 0 177 185" fill="none" xmlns="http://www.w3.org/2000/svg">
<path d="M88.5 45.5874C62.6323 45.5874 41.5874 66.6319 41.5874 92.4996C41.5874 118.367 62.6323 139.412 88.5 139.412C114.368 139.412 135.413 118.367 135.413 92.4996C135.413 66.6323 114.368 45.5874 88.5 45.5874Z" fill="#FF8450"/>
<path d="M158.391 92.5L175.57 69.4134C176.744 67.8358 177.08 65.7864 176.473 63.9159C175.865 62.0453 174.388 60.5854 172.511 59.9988L145.043 51.4191L145.371 22.644C145.393 20.6772 144.461 18.8216 142.87 17.6655C141.278 16.5093 139.225 16.1958 137.362 16.8252L110.097 26.0295L93.4496 2.55744C92.3116 0.953074 90.467 0 88.5002 0C86.5333 0 84.6887 0.953074 83.5507 2.55744L66.9027 26.0299L39.6373 16.8256C37.7736 16.1966 35.7206 16.5097 34.1296 17.6659C32.5386 18.822 31.6061 20.6776 31.6288 22.6444L31.9573 51.4195L4.48922 59.9992C2.6118 60.5858 1.13526 62.0457 0.527654 63.9163C-0.0803556 65.7868 0.256214 67.8358 1.43057 69.4138L18.6098 92.5004L1.43057 115.587C0.256214 117.165 -0.0799511 119.214 0.527654 121.085C1.13526 122.955 2.6122 124.415 4.48922 125.002L31.9573 133.581L31.6288 162.356C31.6061 164.323 32.5386 166.178 34.1296 167.335C35.721 168.49 37.7732 168.804 39.6373 168.175L66.9027 158.97L83.5507 182.443C84.6887 184.047 86.5333 185 88.5002 185C90.467 185 92.3116 184.047 93.4496 182.443L110.098 158.97L137.363 168.175C139.226 168.804 141.279 168.491 142.87 167.335C144.461 166.178 145.394 164.323 145.371 162.356L145.043 133.581L172.511 125.002C174.389 124.415 175.865 122.955 176.473 121.085C177.081 119.214 176.744 117.165 175.57 115.587L158.391 92.5ZM88.5002 151.548C55.9407 151.548 29.4516 125.059 29.4516 92.4996C29.4516 59.9401 55.9407 33.4515 88.5002 33.4515C121.06 33.4515 147.549 59.9401 147.549 92.4996C147.549 125.059 121.06 151.548 88.5002 151.548Z" fill="#E8AA0D"/>
</svg>
